<svg width="94" height="94" viewBox="0 0 94 94" fill="none" xmlns="http://www.w3.org/2000/svg">
<g filter="url(#filter0_dd_7_131)">
<rect x="4" y="23.6523" width="66" height="66" transform="rotate(-21 4 23.6523)" fill="#27A797"/>
<rect x="4" y="23.6523" width="66" height="66" transform="rotate(-21 4 23.6523)" fill="#27A797"/>
<path d="M43.3523 42V39.0909H44.3352C44.5625 39.0909 44.7491 39.1297 44.8949 39.2074C45.0407 39.2841 45.1487 39.3897 45.2188 39.5241C45.2888 39.6586 45.3239 39.8116 45.3239 39.983C45.3239 40.1544 45.2888 40.3063 45.2188 40.4389C45.1487 40.5715 45.0412 40.6757 44.8963 40.7514C44.7514 40.8262 44.5663 40.8636 44.3409 40.8636H43.5455V40.5455H44.3295C44.4848 40.5455 44.6098 40.5227 44.7045 40.4773C44.8002 40.4318 44.8693 40.3674 44.9119 40.2841C44.9555 40.1998 44.9773 40.0994 44.9773 39.983C44.9773 39.8665 44.9555 39.7647 44.9119 39.6776C44.8684 39.5904 44.7988 39.5232 44.7031 39.4759C44.6075 39.4276 44.4811 39.4034 44.3239 39.4034H43.7045V42H43.3523ZM44.7216 40.6932L45.4375 42H45.0284L44.3239 40.6932H44.7216ZM46.7567 42.0455C46.5465 42.0455 46.3652 41.9991 46.2127 41.9062C46.0612 41.8125 45.9442 41.6818 45.8619 41.5142C45.7804 41.3456 45.7397 41.1496 45.7397 40.9261C45.7397 40.7027 45.7804 40.5057 45.8619 40.3352C45.9442 40.1638 46.0588 40.0303 46.2056 39.9347C46.3533 39.8381 46.5257 39.7898 46.7227 39.7898C46.8363 39.7898 46.9485 39.8087 47.0593 39.8466C47.1701 39.8845 47.271 39.946 47.3619 40.0312C47.4528 40.1155 47.5252 40.2273 47.5792 40.3665C47.6332 40.5057 47.6602 40.6771 47.6602 40.8807V41.0227H45.9783V40.733H47.3192C47.3192 40.6098 47.2946 40.5 47.2454 40.4034C47.1971 40.3068 47.128 40.2306 47.038 40.1747C46.949 40.1188 46.8439 40.0909 46.7227 40.0909C46.5891 40.0909 46.4736 40.1241 46.3761 40.1903C46.2795 40.2557 46.2051 40.3409 46.1531 40.446C46.101 40.5511 46.0749 40.6638 46.0749 40.7841V40.9773C46.0749 41.142 46.1033 41.2817 46.1602 41.3963C46.2179 41.5099 46.2979 41.5966 46.4002 41.6562C46.5025 41.715 46.6213 41.7443 46.7567 41.7443C46.8448 41.7443 46.9244 41.732 46.9954 41.7074C47.0674 41.6818 47.1294 41.6439 47.1815 41.5938C47.2335 41.5426 47.2738 41.4792 47.3022 41.4034L47.6261 41.4943C47.592 41.6042 47.5347 41.7008 47.4542 41.7841C47.3737 41.8665 47.2743 41.9309 47.1559 41.9773C47.0375 42.0227 46.9045 42.0455 46.7567 42.0455ZM48.1701 42V39.8182H48.494V40.1591H48.5224C48.5678 40.0426 48.6412 39.9522 48.7425 39.8878C48.8439 39.8224 48.9656 39.7898 49.1076 39.7898C49.2515 39.7898 49.3713 39.8224 49.467 39.8878C49.5636 39.9522 49.6388 40.0426 49.6928 40.1591H49.7156C49.7714 40.0464 49.8552 39.9569 49.967 39.8906C50.0787 39.8234 50.2127 39.7898 50.369 39.7898C50.564 39.7898 50.7236 39.8509 50.8477 39.973C50.9717 40.0942 51.0337 40.2831 51.0337 40.5398V42H50.6985V40.5398C50.6985 40.3788 50.6545 40.2637 50.5664 40.1946C50.4783 40.1255 50.3746 40.0909 50.2553 40.0909C50.1019 40.0909 49.9831 40.1373 49.8988 40.2301C49.8145 40.322 49.7724 40.4384 49.7724 40.5795V42H49.4315V40.5057C49.4315 40.3816 49.3912 40.2817 49.3107 40.206C49.2302 40.1293 49.1265 40.0909 48.9996 40.0909C48.9125 40.0909 48.8311 40.1141 48.7553 40.1605C48.6805 40.2069 48.6199 40.2713 48.5735 40.3537C48.5281 40.4351 48.5053 40.5294 48.5053 40.6364V42H48.1701ZM51.6467 42V39.8182H51.9819V42H51.6467ZM51.8171 39.4545C51.7518 39.4545 51.6954 39.4323 51.6481 39.3878C51.6017 39.3433 51.5785 39.2898 51.5785 39.2273C51.5785 39.1648 51.6017 39.1113 51.6481 39.0668C51.6954 39.0223 51.7518 39 51.8171 39C51.8825 39 51.9383 39.0223 51.9847 39.0668C52.0321 39.1113 52.0558 39.1648 52.0558 39.2273C52.0558 39.2898 52.0321 39.3433 51.9847 39.3878C51.9383 39.4323 51.8825 39.4545 51.8171 39.4545ZM52.8459 39.8182L53.3686 40.7102L53.8913 39.8182H54.2777L53.5732 40.9091L54.2777 42H53.8913L53.3686 41.1534L52.8459 42H52.4595L53.1527 40.9091L52.4595 39.8182H52.8459Z" fill="#F0F0F0"/>
<line x1="27.0122" y1="42.7503" x2="68.0122" y2="44.7503" stroke="white" stroke-width="0.5"/>
<line x1="27.0122" y1="36.7503" x2="68.0122" y2="38.7503" stroke="white" stroke-width="0.5"/>
<line x1="27.0244" y1="48.5006" x2="68.0244" y2="50.5006" stroke="white"/>
<line x1="27.0244" y1="55.5006" x2="68.0244" y2="57.5006" stroke="white"/>
<path d="M28.0568 33V24.2727H31.108C31.7159 24.2727 32.2173 24.3778 32.6122 24.5881C33.0071 24.7955 33.3011 25.0753 33.4943 25.4276C33.6875 25.777 33.7841 26.1648 33.7841 26.5909C33.7841 26.9659 33.7173 27.2756 33.5838 27.5199C33.4531 27.7642 33.2798 27.9574 33.0639 28.0994C32.8509 28.2415 32.6193 28.3466 32.3693 28.4148V28.5C32.6364 28.517 32.9048 28.6108 33.1747 28.7812C33.4446 28.9517 33.6705 29.196 33.8523 29.5142C34.0341 29.8324 34.125 30.2216 34.125 30.6818C34.125 31.1193 34.0256 31.5128 33.8267 31.8622C33.6278 32.2116 33.3139 32.4886 32.8849 32.6932C32.456 32.8977 31.8977 33 31.2102 33H28.0568ZM29.1136 32.0625H31.2102C31.9006 32.0625 32.3906 31.929 32.6804 31.6619C32.973 31.392 33.1193 31.0653 33.1193 30.6818C33.1193 30.3864 33.044 30.1136 32.8935 29.8636C32.7429 29.6108 32.5284 29.4091 32.25 29.2585C31.9716 29.1051 31.642 29.0284 31.2614 29.0284H29.1136V32.0625ZM29.1136 28.108H31.0739C31.392 28.108 31.679 28.0455 31.9347 27.9205C32.1932 27.7955 32.3977 27.6193 32.5483 27.392C32.7017 27.1648 32.7784 26.8977 32.7784 26.5909C32.7784 26.2074 32.6449 25.8821 32.3778 25.6151C32.1108 25.3452 31.6875 25.2102 31.108 25.2102H29.1136V28.108ZM36.7308 24.2727V33H35.7251V24.2727H36.7308ZM41.2319 33.1364C40.641 33.1364 40.1225 32.9957 39.6765 32.7145C39.2333 32.4332 38.8867 32.0398 38.6367 31.5341C38.3896 31.0284 38.266 30.4375 38.266 29.7614C38.266 29.0795 38.3896 28.4844 38.6367 27.9759C38.8867 27.4673 39.2333 27.0724 39.6765 26.7912C40.1225 26.5099 40.641 26.3693 41.2319 26.3693C41.8228 26.3693 42.3398 26.5099 42.783 26.7912C43.229 27.0724 43.5756 27.4673 43.8228 27.9759C44.0728 28.4844 44.1978 29.0795 44.1978 29.7614C44.1978 30.4375 44.0728 31.0284 43.8228 31.5341C43.5756 32.0398 43.229 32.4332 42.783 32.7145C42.3398 32.9957 41.8228 33.1364 41.2319 33.1364ZM41.2319 32.233C41.6808 32.233 42.0501 32.1179 42.3398 31.8878C42.6296 31.6577 42.8441 31.3551 42.9833 30.9801C43.1225 30.6051 43.1921 30.1989 43.1921 29.7614C43.1921 29.3239 43.1225 28.9162 42.9833 28.5384C42.8441 28.1605 42.6296 27.8551 42.3398 27.6222C42.0501 27.3892 41.6808 27.2727 41.2319 27.2727C40.783 27.2727 40.4137 27.3892 40.1239 27.6222C39.8342 27.8551 39.6197 28.1605 39.4805 28.5384C39.3413 28.9162 39.2717 29.3239 39.2717 29.7614C39.2717 30.1989 39.3413 30.6051 39.4805 30.9801C39.6197 31.3551 39.8342 31.6577 40.1239 31.8878C40.4137 32.1179 40.783 32.233 41.2319 32.233ZM48.375 35.5909C47.8892 35.5909 47.4716 35.5284 47.1222 35.4034C46.7727 35.2812 46.4815 35.1193 46.2486 34.9176C46.0185 34.7188 45.8352 34.5057 45.6989 34.2784L46.5 33.7159C46.5909 33.8352 46.706 33.9716 46.8452 34.125C46.9844 34.2812 47.1747 34.4162 47.4162 34.5298C47.6605 34.6463 47.9801 34.7045 48.375 34.7045C48.9034 34.7045 49.3395 34.5767 49.6832 34.321C50.027 34.0653 50.1989 33.6648 50.1989 33.1193V31.7898H50.1136C50.0398 31.9091 49.9347 32.0568 49.7983 32.233C49.6648 32.4062 49.4716 32.5611 49.2188 32.6974C48.9688 32.831 48.6307 32.8977 48.2045 32.8977C47.6761 32.8977 47.2017 32.7727 46.7812 32.5227C46.3636 32.2727 46.0327 31.9091 45.7884 31.4318C45.5469 30.9545 45.4261 30.375 45.4261 29.6932C45.4261 29.0227 45.544 28.4389 45.7798 27.9418C46.0156 27.4418 46.3438 27.0554 46.7642 26.7827C47.1847 26.5071 47.6705 26.3693 48.2216 26.3693C48.6477 26.3693 48.9858 26.4403 49.2358 26.5824C49.4886 26.7216 49.6818 26.8807 49.8153 27.0597C49.9517 27.2358 50.0568 27.3807 50.1307 27.4943H50.233V26.4545H51.2045V33.1875C51.2045 33.75 51.0767 34.2074 50.821 34.5597C50.5682 34.9148 50.2273 35.1747 49.7983 35.3395C49.3722 35.5071 48.8977 35.5909 48.375 35.5909ZM48.3409 31.9943C48.7443 31.9943 49.0852 31.902 49.3636 31.7173C49.642 31.5327 49.8537 31.267 49.9986 30.9205C50.1435 30.5739 50.2159 30.1591 50.2159 29.6761C50.2159 29.2045 50.1449 28.7884 50.0028 28.4276C49.8608 28.0668 49.6506 27.7841 49.3722 27.5795C49.0938 27.375 48.75 27.2727 48.3409 27.2727C47.9148 27.2727 47.5597 27.3807 47.2756 27.5966C46.9943 27.8125 46.7827 28.1023 46.6406 28.4659C46.5014 28.8295 46.4318 29.233 46.4318 29.6761C46.4318 30.1307 46.5028 30.5327 46.6449 30.8821C46.7898 31.2287 47.0028 31.5014 47.2841 31.7003C47.5682 31.8963 47.9205 31.9943 48.3409 31.9943Z" fill="#F0F0F0"/>
<path d="M43.3523 48V45.0909H44.3352C44.5625 45.0909 44.7491 45.1297 44.8949 45.2074C45.0407 45.2841 45.1487 45.3897 45.2188 45.5241C45.2888 45.6586 45.3239 45.8116 45.3239 45.983C45.3239 46.1544 45.2888 46.3063 45.2188 46.4389C45.1487 46.5715 45.0412 46.6757 44.8963 46.7514C44.7514 46.8262 44.5663 46.8636 44.3409 46.8636H43.5455V46.5455H44.3295C44.4848 46.5455 44.6098 46.5227 44.7045 46.4773C44.8002 46.4318 44.8693 46.3674 44.9119 46.2841C44.9555 46.1998 44.9773 46.0994 44.9773 45.983C44.9773 45.8665 44.9555 45.7647 44.9119 45.6776C44.8684 45.5904 44.7988 45.5232 44.7031 45.4759C44.6075 45.4276 44.4811 45.4034 44.3239 45.4034H43.7045V48H43.3523ZM44.7216 46.6932L45.4375 48H45.0284L44.3239 46.6932H44.7216ZM46.7567 48.0455C46.5465 48.0455 46.3652 47.9991 46.2127 47.9062C46.0612 47.8125 45.9442 47.6818 45.8619 47.5142C45.7804 47.3456 45.7397 47.1496 45.7397 46.9261C45.7397 46.7027 45.7804 46.5057 45.8619 46.3352C45.9442 46.1638 46.0588 46.0303 46.2056 45.9347C46.3533 45.8381 46.5257 45.7898 46.7227 45.7898C46.8363 45.7898 46.9485 45.8087 47.0593 45.8466C47.1701 45.8845 47.271 45.946 47.3619 46.0312C47.4528 46.1155 47.5252 46.2273 47.5792 46.3665C47.6332 46.5057 47.6602 46.6771 47.6602 46.8807V47.0227H45.9783V46.733H47.3192C47.3192 46.6098 47.2946 46.5 47.2454 46.4034C47.1971 46.3068 47.128 46.2306 47.038 46.1747C46.949 46.1188 46.8439 46.0909 46.7227 46.0909C46.5891 46.0909 46.4736 46.1241 46.3761 46.1903C46.2795 46.2557 46.2051 46.3409 46.1531 46.446C46.101 46.5511 46.0749 46.6638 46.0749 46.7841V46.9773C46.0749 47.142 46.1033 47.2817 46.1602 47.3963C46.2179 47.5099 46.2979 47.5966 46.4002 47.6562C46.5025 47.715 46.6213 47.7443 46.7567 47.7443C46.8448 47.7443 46.9244 47.732 46.9954 47.7074C47.0674 47.6818 47.1294 47.6439 47.1815 47.5938C47.2335 47.5426 47.2738 47.4792 47.3022 47.4034L47.6261 47.4943C47.592 47.6042 47.5347 47.7008 47.4542 47.7841C47.3737 47.8665 47.2743 47.9309 47.1559 47.9773C47.0375 48.0227 46.9045 48.0455 46.7567 48.0455ZM48.8121 48.0511C48.6739 48.0511 48.5484 48.0251 48.4357 47.973C48.323 47.92 48.2335 47.8438 48.1673 47.7443C48.101 47.6439 48.0678 47.5227 48.0678 47.3807C48.0678 47.2557 48.0924 47.1544 48.1417 47.0767C48.1909 46.9981 48.2567 46.9366 48.3391 46.892C48.4215 46.8475 48.5124 46.8144 48.6119 46.7926C48.7122 46.7699 48.8131 46.7519 48.9144 46.7386C49.047 46.7216 49.1545 46.7088 49.2369 46.7003C49.3202 46.6908 49.3808 46.6752 49.4187 46.6534C49.4575 46.6316 49.4769 46.5937 49.4769 46.5398V46.5284C49.4769 46.3883 49.4386 46.2794 49.3619 46.2017C49.2861 46.1241 49.171 46.0852 49.0167 46.0852C48.8567 46.0852 48.7312 46.1203 48.6403 46.1903C48.5494 46.2604 48.4854 46.3352 48.4485 46.4148L48.1303 46.3011C48.1871 46.1686 48.2629 46.0653 48.3576 45.9915C48.4532 45.9167 48.5574 45.8646 48.6701 45.8352C48.7837 45.8049 48.8955 45.7898 49.0053 45.7898C49.0754 45.7898 49.1559 45.7983 49.2468 45.8153C49.3387 45.8314 49.4272 45.8651 49.5124 45.9162C49.5986 45.9673 49.6701 46.0445 49.7269 46.1477C49.7837 46.2509 49.8121 46.3892 49.8121 46.5625V48H49.4769V47.7045H49.4599C49.4371 47.7519 49.3993 47.8026 49.3462 47.8565C49.2932 47.9105 49.2227 47.9564 49.1346 47.9943C49.0465 48.0322 48.939 48.0511 48.8121 48.0511ZM48.8633 47.75C48.9959 47.75 49.1076 47.724 49.1985 47.6719C49.2904 47.6198 49.3595 47.5526 49.4059 47.4702C49.4532 47.3878 49.4769 47.3011 49.4769 47.2102V46.9034C49.4627 46.9205 49.4315 46.9361 49.3832 46.9503C49.3358 46.9635 49.2809 46.9754 49.2184 46.9858C49.1568 46.9953 49.0967 47.0038 49.038 47.0114C48.9802 47.018 48.9334 47.0237 48.8974 47.0284C48.8103 47.0398 48.7288 47.0582 48.6531 47.0838C48.5782 47.1084 48.5176 47.1458 48.4712 47.196C48.4258 47.2453 48.4031 47.3125 48.4031 47.3977C48.4031 47.5142 48.4461 47.6023 48.5323 47.6619C48.6194 47.7206 48.7298 47.75 48.8633 47.75ZM51.3104 48.0455C51.1058 48.0455 50.9297 47.9972 50.782 47.9006C50.6342 47.804 50.5206 47.6709 50.4411 47.5014C50.3615 47.3319 50.3217 47.1383 50.3217 46.9205C50.3217 46.6989 50.3625 46.5033 50.4439 46.3338C50.5263 46.1634 50.6409 46.0303 50.7876 45.9347C50.9354 45.8381 51.1077 45.7898 51.3047 45.7898C51.4581 45.7898 51.5964 45.8182 51.7195 45.875C51.8426 45.9318 51.9434 46.0114 52.022 46.1136C52.1006 46.2159 52.1494 46.3352 52.1683 46.4716H51.8331C51.8075 46.3722 51.7507 46.2841 51.6626 46.2074C51.5755 46.1297 51.4581 46.0909 51.3104 46.0909C51.1797 46.0909 51.0651 46.125 50.9666 46.1932C50.8691 46.2604 50.7929 46.3556 50.7379 46.4787C50.6839 46.6009 50.657 46.7443 50.657 46.9091C50.657 47.0777 50.6835 47.2244 50.7365 47.3494C50.7905 47.4744 50.8662 47.5715 50.9638 47.6406C51.0623 47.7098 51.1778 47.7443 51.3104 47.7443C51.3975 47.7443 51.4766 47.7292 51.5476 47.6989C51.6186 47.6686 51.6787 47.625 51.728 47.5682C51.7772 47.5114 51.8123 47.4432 51.8331 47.3636H52.1683C52.1494 47.4924 52.1025 47.6084 52.0277 47.7116C51.9538 47.8139 51.8558 47.8954 51.7337 47.956C51.6125 48.0156 51.4714 48.0455 51.3104 48.0455ZM53.6072 45.8182V46.1023H52.4766V45.8182H53.6072ZM52.8061 45.2955H53.1413V47.375C53.1413 47.4697 53.1551 47.5407 53.1825 47.5881C53.2109 47.6345 53.2469 47.6657 53.2905 47.6818C53.335 47.697 53.3819 47.7045 53.4311 47.7045C53.468 47.7045 53.4983 47.7027 53.522 47.6989C53.5457 47.6941 53.5646 47.6903 53.5788 47.6875L53.647 47.9886C53.6243 47.9972 53.5926 48.0057 53.5518 48.0142C53.5111 48.0237 53.4595 48.0284 53.397 48.0284C53.3023 48.0284 53.2095 48.008 53.1186 47.9673C53.0286 47.9266 52.9538 47.8646 52.8942 47.7812C52.8355 47.6979 52.8061 47.5928 52.8061 47.4659V45.2955Z" fill="#F0F0F0"/>
<path d="M43.3523 52.0909H43.7727L44.7614 54.5057H44.7955L45.7841 52.0909H46.2045V55H45.875V52.7898H45.8466L44.9375 55H44.6193L43.7102 52.7898H43.6818V55H43.3523V52.0909ZM47.6893 55.0455C47.5075 55.0455 47.3469 54.9995 47.2077 54.9077C47.0685 54.8149 46.9596 54.6842 46.881 54.5156C46.8024 54.3461 46.7631 54.1458 46.7631 53.9148C46.7631 53.6856 46.8024 53.4867 46.881 53.3182C46.9596 53.1496 47.069 53.0194 47.2092 52.9276C47.3493 52.8357 47.5112 52.7898 47.695 52.7898C47.837 52.7898 47.9492 52.8134 48.0316 52.8608C48.1149 52.9072 48.1784 52.9602 48.2219 53.0199C48.2665 53.0786 48.301 53.1269 48.3256 53.1648H48.354V52.0909H48.6893V55H48.3654V54.6648H48.3256C48.301 54.7045 48.266 54.7547 48.2205 54.8153C48.1751 54.875 48.1102 54.9285 48.0259 54.9759C47.9416 55.0223 47.8294 55.0455 47.6893 55.0455ZM47.7347 54.7443C47.8692 54.7443 47.9828 54.7093 48.0756 54.6392C48.1684 54.5682 48.239 54.4702 48.2873 54.3452C48.3356 54.2192 48.3597 54.0739 48.3597 53.9091C48.3597 53.7462 48.3361 53.6037 48.2887 53.4815C48.2414 53.3584 48.1713 53.2628 48.0785 53.1946C47.9857 53.1255 47.8711 53.0909 47.7347 53.0909C47.5927 53.0909 47.4743 53.1274 47.3796 53.2003C47.2859 53.2723 47.2153 53.3703 47.168 53.4943C47.1216 53.6174 47.0984 53.7557 47.0984 53.9091C47.0984 54.0644 47.122 54.2055 47.1694 54.3324C47.2177 54.4583 47.2887 54.5587 47.3825 54.6335C47.4772 54.7074 47.5946 54.7443 47.7347 54.7443ZM49.5998 52.8182L50.1225 53.7102L50.6452 52.8182H51.0316L50.3271 53.9091L51.0316 55H50.6452L50.1225 54.1534L49.5998 55H49.2134L49.9066 53.9091L49.2134 52.8182H49.5998Z" fill="#F0F0F0"/>
</g>
<defs>
<filter id="filter0_dd_7_131" x="0" y="0" width="93.2686" height="93.2686" filterUnits="userSpaceOnUse" color-interpolation-filters="sRGB">
<feFlood flood-opacity="0" result="BackgroundImageFix"/>
<feColorMatrix in="SourceAlpha" type="matrix" values="0 0 0 0 0 0 0 0 0 0 0 0 0 0 0 0 0 0 127 0" result="hardAlpha"/>
<feOffset dy="4"/>
<feGaussianBlur stdDeviation="2"/>
<feComposite in2="hardAlpha" operator="out"/>
<feColorMatrix type="matrix" values="0 0 0 0 0 0 0 0 0 0 0 0 0 0 0 0 0 0 0.25 0"/>
<feBlend mode="normal" in2="BackgroundImageFix" result="effect1_dropShadow_7_131"/>
<feColorMatrix in="SourceAlpha" type="matrix" values="0 0 0 0 0 0 0 0 0 0 0 0 0 0 0 0 0 0 127 0" result="hardAlpha"/>
<feOffset dy="4"/>
<feGaussianBlur stdDeviation="2"/>
<feComposite in2="hardAlpha" operator="out"/>
<feColorMatrix type="matrix" values="0 0 0 0 0 0 0 0 0 0 0 0 0 0 0 0 0 0 0.25 0"/>
<feBlend mode="normal" in2="effect1_dropShadow_7_131" result="effect2_dropShadow_7_131"/>
<feBlend mode="normal" in="SourceGraphic" in2="effect2_dropShadow_7_131" result="shape"/>
</filter>
</defs>
</svg>
